<svg width="59" height="125" viewBox="0 0 59 125" fill="none" xmlns="http://www.w3.org/2000/svg">
<path d="M9.64001 97V28.84H25.768C31.656 28.84 36.776 30.184 41.128 32.872C45.544 35.496 48.936 39.368 51.304 44.488C53.736 49.544 54.952 55.72 54.952 63.016C54.952 70.312 53.736 76.488 51.304 81.544C48.936 86.6 45.544 90.44 41.128 93.064C36.776 95.688 31.656 97 25.768 97H9.64001ZM17.896 88.936H25.288C31.944 88.936 37.096 86.792 40.744 82.504C44.456 78.152 46.312 71.656 46.312 63.016C46.312 54.376 44.456 47.88 40.744 43.528C37.096 39.112 31.944 36.904 25.288 36.904H17.896V88.936Z" fill="#FF4000"/>
<path d="M21.0011 32.8501L-0.000259399 32.8501V32.8501" stroke="#FF4000" stroke-width="8"/>
<path d="M24 93H3.85714H-2.38419e-07" stroke="#FF4000" stroke-width="8"/>
</svg>
