<svg width="58" height="125" viewBox="0 0 58 125" fill="none" xmlns="http://www.w3.org/2000/svg">
<path d="M8.64 97V28.84H24.768C30.656 28.84 35.776 30.184 40.128 32.872C44.544 35.496 47.936 39.368 50.304 44.488C52.736 49.544 53.952 55.72 53.952 63.016C53.952 70.312 52.736 76.488 50.304 81.544C47.936 86.6 44.544 90.44 40.128 93.064C35.776 95.688 30.656 97 24.768 97H8.64ZM16.896 88.936H24.288C30.944 88.936 36.096 86.792 39.744 82.504C43.456 78.152 45.312 71.656 45.312 63.016C45.312 54.376 43.456 47.88 39.744 43.528C36.096 39.112 30.944 36.904 24.288 36.904H16.896V88.936Z" fill="#FF4000"/>
</svg>
