<svg width="346" height="125" viewBox="0 0 346 125" fill="none" xmlns="http://www.w3.org/2000/svg">
<path d="M8.64 97V28.84H24.768C30.656 28.84 35.776 30.184 40.128 32.872C44.544 35.496 47.936 39.368 50.304 44.488C52.736 49.544 53.952 55.72 53.952 63.016C53.952 70.312 52.736 76.488 50.304 81.544C47.936 86.6 44.544 90.44 40.128 93.064C35.776 95.688 30.656 97 24.768 97H8.64ZM16.896 88.936H24.288C30.944 88.936 36.096 86.792 39.744 82.504C43.456 78.152 45.312 71.656 45.312 63.016C45.312 54.376 43.456 47.88 39.744 43.528C36.096 39.112 30.944 36.904 24.288 36.904H16.896V88.936ZM87.2265 98.152C82.4265 98.152 78.2665 97.064 74.7465 94.888C71.2905 92.712 68.6025 89.64 66.6825 85.672C64.8265 81.64 63.8985 76.936 63.8985 71.56C63.8985 66.184 64.8265 61.512 66.6825 57.544C68.6025 53.576 71.2585 50.504 74.6505 48.328C78.1065 46.088 82.1705 44.968 86.8425 44.968C91.2585 44.968 95.1625 46.024 98.5545 48.136C101.947 50.184 104.603 53.192 106.523 57.16C108.443 61.128 109.403 65.96 109.403 71.656V74.056H72.3465C72.6665 79.496 74.1065 83.592 76.6665 86.344C79.2905 89.096 82.8105 90.472 87.2265 90.472C90.5545 90.472 93.2745 89.704 95.3865 88.168C97.5625 86.568 99.0665 84.488 99.8985 81.928L108.539 82.6C107.195 87.144 104.635 90.888 100.859 93.832C97.1465 96.712 92.6025 98.152 87.2265 98.152ZM72.3465 66.952H100.571C100.187 62.024 98.7465 58.408 96.2505 56.104C93.7545 53.8 90.6185 52.648 86.8425 52.648C82.9385 52.648 79.7065 53.864 77.1465 56.296C74.6505 58.664 73.0505 62.216 72.3465 66.952ZM151.413 97C146.485 97 142.805 95.848 140.373 93.544C137.941 91.24 136.725 87.72 136.725 82.984V34.216H144.789V82.984C144.789 85.352 145.333 87.112 146.421 88.264C147.509 89.352 149.173 89.896 151.413 89.896H165.045V97H151.413ZM119.925 53.224V46.12H165.045V53.224H119.925ZM201.488 98.152C196.816 98.152 192.72 97.064 189.2 94.888C185.744 92.712 183.056 89.64 181.136 85.672C179.216 81.64 178.256 76.936 178.256 71.56C178.256 66.12 179.216 61.416 181.136 57.448C183.056 53.48 185.744 50.408 189.2 48.232C192.72 46.056 196.816 44.968 201.488 44.968C206.16 44.968 210.224 46.056 213.68 48.232C217.2 50.408 219.92 53.48 221.84 57.448C223.76 61.416 224.72 66.12 224.72 71.56C224.72 76.936 223.76 81.64 221.84 85.672C219.92 89.64 217.2 92.712 213.68 94.888C210.224 97.064 206.16 98.152 201.488 98.152ZM201.488 90.472C206.16 90.472 209.776 88.808 212.336 85.48C214.96 82.088 216.272 77.448 216.272 71.56C216.272 65.672 214.96 61.064 212.336 57.736C209.776 54.344 206.16 52.648 201.488 52.648C196.816 52.648 193.168 54.344 190.544 57.736C187.984 61.064 186.704 65.672 186.704 71.56C186.704 77.448 187.984 82.088 190.544 85.48C193.168 88.808 196.816 90.472 201.488 90.472ZM255.498 98.152C250.442 98.152 246.41 96.456 243.402 93.064C240.394 89.608 238.89 84.872 238.89 78.856V46.12H246.954V76.648C246.954 81.576 247.818 85.224 249.546 87.592C251.338 89.896 254.058 91.048 257.706 91.048C261.674 91.048 264.81 89.768 267.114 87.208C269.418 84.584 270.57 81 270.57 76.456V46.12H278.634V97H270.954V84.424L272.202 85.096C271.178 89.256 269.226 92.488 266.346 94.792C263.466 97.032 259.85 98.152 255.498 98.152ZM309.701 97V46.12H316.421L317.189 58.984L316.421 58.792C317.061 54.44 318.437 51.24 320.549 49.192C322.725 47.144 325.605 46.12 329.189 46.12H339.653V53.416H329.285C326.789 53.416 324.677 53.928 322.949 54.952C321.285 55.912 320.005 57.352 319.109 59.272C318.213 61.128 317.765 63.464 317.765 66.28V97H309.701ZM296.453 97V89.896H333.893V97H296.453ZM296.453 53.224V46.12H314.117V53.224H296.453Z" fill="#2DC67F"/>
<path d="M7.95 16.8638L242.95 16.8638V80.0002" stroke="#2DC67F" stroke-width="8"/>
<path d="M338.6 18.3145H274.6V58.0002" stroke="#2DC67F" stroke-width="8"/>
</svg>
